<svg xmlns="http://www.w3.org/2000/svg" width="26" height="26" fill="none" viewBox="0 0 26 26"><g clip-path="url(#a)"><path fill="#66beda" d="M13 26c7.18 0 13-5.82 13-13S20.18 0 13 0 0 5.82 0 13s5.82 13 13 13"/><path fill="#fff" fill-rule="evenodd" d="m9.893 17.74-3.787-3.93a1.313 1.313 0 0 1 .066-1.89 1.416 1.416 0 0 1 1.952.063l2.921 3.03 4.624-4.186q.063-.057.13-.104l2.175-1.97a1.416 1.416 0 0 1 1.951.065 1.313 1.313 0 0 1-.066 1.891l-6.642 6.013-.007-.007-2.297 2.08z" clip-rule="evenodd"/></g><defs><clipPath id="a"><path fill="#fff" d="M0 0h26v26H0z"/></clipPath></defs></svg>