<svg width="180" height="30" viewBox="0 0 180 30" fill="none" xmlns="http://www.w3.org/2000/svg">
<g clip-path="url(#clip0_236_8514)">
<path d="M24 0H6C2.68629 0 0 2.68629 0 6V24C0 27.3137 2.68629 30 6 30H24C27.3137 30 30 27.3137 30 24V6C30 2.68629 27.3137 0 24 0Z" fill="#219653"/>
<path d="M14.9993 20.2188L19.5618 19.0625L21.468 24.9375L14.9993 20.2188ZM25.4993 12.625H17.468L14.9993 5.0625L12.5305 12.625H4.49927L10.9993 17.3125L8.53052 24.875L15.0305 20.1875L19.0305 17.3125L25.4993 12.625Z" fill="white"/>
<path d="M61.5 0H43.5C40.1863 0 37.5 2.68629 37.5 6V24C37.5 27.3137 40.1863 30 43.5 30H61.5C64.8137 30 67.5 27.3137 67.5 24V6C67.5 2.68629 64.8137 0 61.5 0Z" fill="#219653"/>
<path d="M52.4993 20.2188L57.0618 19.0625L58.968 24.9375L52.4993 20.2188ZM62.9993 12.625H54.968L52.4993 5.0625L50.0305 12.625H41.9993L48.4993 17.3125L46.0305 24.875L52.5305 20.1875L56.5305 17.3125L62.9993 12.625Z" fill="white"/>
<path d="M99 0H81C77.6863 0 75 2.68629 75 6V24C75 27.3137 77.6863 30 81 30H99C102.314 30 105 27.3137 105 24V6C105 2.68629 102.314 0 99 0Z" fill="#219653"/>
<path d="M89.9993 20.2188L94.5618 19.0625L96.468 24.9375L89.9993 20.2188ZM100.499 12.625H92.468L89.9993 5.0625L87.5305 12.625H79.4993L85.9993 17.3125L83.5305 24.875L90.0305 20.1875L94.0305 17.3125L100.499 12.625Z" fill="white"/>
<path d="M136.5 0H118.5C115.186 0 112.5 2.68629 112.5 6V24C112.5 27.3137 115.186 30 118.5 30H136.5C139.814 30 142.5 27.3137 142.5 24V6C142.5 2.68629 139.814 0 136.5 0Z" fill="#219653"/>
<path d="M127.499 20.2188L132.062 19.0625L133.968 24.9375L127.499 20.2188ZM137.999 12.625H129.968L127.499 5.0625L125.031 12.625H116.999L123.499 17.3125L121.031 24.875L127.531 20.1875L131.531 17.3125L137.999 12.625Z" fill="white"/>
<path d="M174 0H156C152.686 0 150 2.68629 150 6V24C150 27.3137 152.686 30 156 30H174C177.314 30 180 27.3137 180 24V6C180 2.68629 177.314 0 174 0Z" fill="#219653"/>
<path d="M164.999 20.2188L169.562 19.0625L171.468 24.9375L164.999 20.2188ZM175.499 12.625H167.468L164.999 5.0625L162.531 12.625H154.499L160.999 17.3125L158.531 24.875L165.031 20.1875L169.031 17.3125L175.499 12.625Z" fill="white"/>
</g>
<defs>
<clipPath id="clip0_236_8514">
<rect width="180" height="30" fill="white"/>
</clipPath>
</defs>
</svg>
